<svg width="15" height="15" viewBox="0 0 15 15" fill="none" xmlns="http://www.w3.org/2000/svg">
<path d="M11.875 8.125V11.875C11.875 12.2065 11.7433 12.5245 11.5089 12.7589C11.2745 12.9933 10.9565 13.125 10.625 13.125H3.125C2.79348 13.125 2.47554 12.9933 2.24112 12.7589C2.0067 12.5245 1.875 12.2065 1.875 11.875V4.375C1.875 4.04348 2.0067 3.72554 2.24112 3.49112C2.47554 3.2567 2.79348 3.125 3.125 3.125H6.875V4.375H3.125V11.875H10.625V8.125H11.875ZM8.125 1.875V3.125H10.9913L6.12063 7.99563L7.00437 8.87937L11.875 4.00875V6.875H13.125V1.875H8.125Z" fill="#2F3235"/>
</svg>
