<svg width="18" height="18" viewBox="0 0 18 18" fill="none" xmlns="http://www.w3.org/2000/svg">
<path d="M9.16659 2C11.3677 2 13.4057 2.9765 14.7571 4.6208C14.7956 4.66741 14.8243 4.72129 14.8416 4.77923C14.8588 4.83718 14.8643 4.898 14.8575 4.95808C14.8508 5.01817 14.8321 5.07629 14.8024 5.12898C14.7728 5.18167 14.7329 5.22786 14.685 5.2648C14.5876 5.34117 14.4643 5.37658 14.3412 5.36351C14.2181 5.35044 14.105 5.28993 14.0257 5.1948C13.4348 4.47886 12.6923 3.90304 11.8519 3.5089C11.0115 3.11476 10.0941 2.91212 9.16589 2.9156C5.72607 2.9156 2.93712 5.64 2.93712 9C2.93712 12.36 5.72607 15.0844 9.16589 15.0844C10.1075 15.088 11.0378 14.8795 11.8878 14.4744C12.7378 14.0693 13.4858 13.478 14.0761 12.7443C14.154 12.6482 14.2662 12.5862 14.389 12.5714C14.5118 12.5567 14.6356 12.5903 14.734 12.6652C14.7823 12.7015 14.8228 12.7472 14.853 12.7994C14.8833 12.8517 14.9028 12.9095 14.9103 12.9694C14.9178 13.0294 14.9132 13.0902 14.8967 13.1484C14.8803 13.2065 14.8523 13.2607 14.8145 13.3078C13.4651 14.9948 11.3999 16 9.16659 16C5.20747 16 2 12.8661 2 9C2 5.1339 5.20817 2 9.16659 2ZM13.9663 7.012L15.8601 8.9069C16.0434 9.0896 16.0469 9.3829 15.8685 9.5621L14.018 11.4122C13.9302 11.4981 13.8119 11.5457 13.6891 11.5444C13.5662 11.5431 13.4489 11.493 13.363 11.4052C13.3194 11.3627 13.2846 11.312 13.2606 11.256C13.2366 11.2 13.2238 11.1398 13.2231 11.0788C13.2224 11.0179 13.2337 10.9575 13.2564 10.9009C13.2791 10.8444 13.3127 10.7928 13.3553 10.7493L14.438 9.6664H7.22237C7.16153 9.66714 7.10114 9.65589 7.04464 9.63328C6.98815 9.61067 6.93666 9.57715 6.89312 9.53464C6.84957 9.49213 6.81483 9.44146 6.79087 9.38551C6.76691 9.32957 6.7542 9.26946 6.75347 9.2086C6.75347 8.9552 6.96343 8.7501 7.22237 8.7501H14.4093L13.3189 7.6595C13.231 7.57363 13.1808 7.45636 13.1794 7.33349C13.1779 7.21063 13.2254 7.09222 13.3112 7.0043C13.3991 6.91845 13.5175 6.87104 13.6403 6.87248C13.7632 6.87393 13.8804 6.92411 13.9663 7.012Z" fill="black"/>
</svg>
