<svg width="18" height="13" viewBox="0 0 18 13" fill="none" xmlns="http://www.w3.org/2000/svg">
<path d="M16.7143 0H1.28571C0.944722 0 0.617695 0.136964 0.376577 0.380761C0.135459 0.624558 0 0.955218 0 1.3V11.7C0 12.0448 0.135459 12.3754 0.376577 12.6192C0.617695 12.863 0.944722 13 1.28571 13H16.7143C17.0553 13 17.3823 12.863 17.6234 12.6192C17.8645 12.3754 18 12.0448 18 11.7V1.3C18 0.955218 17.8645 0.624558 17.6234 0.380761C17.3823 0.136964 17.0553 0 16.7143 0ZM15.3 1.3L9 5.707L2.7 1.3H15.3ZM1.28571 11.7V1.8915L8.63357 7.033C8.74118 7.10848 8.86903 7.14893 9 7.14893C9.13097 7.14893 9.25882 7.10848 9.36643 7.033L16.7143 1.8915V11.7H1.28571Z" fill="white"/>
</svg>
