<svg width="19" height="16" viewBox="0 0 19 16" fill="none" xmlns="http://www.w3.org/2000/svg">
<path d="M13.4149 15.9349C13.644 15.9361 13.871 15.8964 14.0827 15.8183C14.2945 15.7401 14.4867 15.625 14.6482 15.4796L16.9853 13.3884C17.1459 13.2438 17.2361 13.0482 17.2361 12.8444C17.2361 12.6405 17.1459 12.4449 16.9853 12.3004L13.5357 9.2137C13.3741 9.06997 13.1555 8.9893 12.9277 8.9893C12.6998 8.9893 12.4813 9.06997 12.3197 9.2137L10.9398 10.4406C9.98448 10.2127 9.0997 9.79314 8.35259 9.2137C7.70675 8.54413 7.23804 7.75283 6.98136 6.89871L8.35259 5.66404C8.51321 5.51946 8.60337 5.32388 8.60337 5.12002C8.60337 4.91616 8.51321 4.72058 8.35259 4.576L4.90296 1.48935C4.74137 1.34562 4.52279 1.26495 4.29496 1.26495C4.06712 1.26495 3.84854 1.34562 3.68696 1.48935L1.35846 3.58827C1.19601 3.73276 1.06735 3.90475 0.979988 4.09421C0.892627 4.28367 0.848315 4.4868 0.849638 4.69175C0.927878 7.65671 2.25198 10.4864 4.55799 12.6167C6.93886 14.6801 10.1013 15.8649 13.4149 15.9349ZM4.29927 3.13299L6.53291 5.1316L5.4204 6.12704C5.31503 6.21536 5.23613 6.32593 5.19093 6.44862C5.14572 6.57131 5.13567 6.70219 5.16168 6.82926C5.48402 8.11822 6.16648 9.31297 7.14522 10.3017C8.24941 11.1786 9.585 11.7894 11.0261 12.0766C11.1659 12.1027 11.3109 12.0974 11.4478 12.061C11.5848 12.0247 11.7096 11.9584 11.8108 11.8682L12.9234 10.8496L15.157 12.8482L13.4322 14.3916C10.5722 14.3257 7.84334 13.3044 5.78261 11.5287C3.79296 9.68404 2.64828 7.23909 2.57445 4.67632L4.29927 3.13299ZM16.373 7.44659H18.0978C18.1202 6.52908 17.9347 5.61702 17.5525 4.76537C17.1704 3.91372 16.5995 3.14012 15.8743 2.49119C15.149 1.84226 14.2844 1.33144 13.3326 0.989503C12.3808 0.647569 11.3615 0.481606 10.3361 0.501616V2.04494C11.1364 2.02017 11.9337 2.14295 12.6787 2.40565C13.4236 2.66834 14.1002 3.06533 14.6664 3.57194C15.2326 4.07856 15.6763 4.68396 15.9699 5.35052C16.2635 6.01708 16.4007 6.73056 16.373 7.44659Z" fill="white"/>
<path d="M10.3359 5.1317C12.147 5.1317 12.9232 5.8262 12.9232 7.44669H14.648C14.648 4.96194 13.1129 3.58838 10.3359 3.58838V5.1317Z" fill="white"/>
</svg>
